# xmcd
#
# Track frame offsets: 
#        150
#        10717
#        23277
#        34413
#        46744
#        60780
#        72428
#        84977
#        98333
#        109866
#        123002
#        134936
#        147244
#        158768
#        175197
#        187987
#        203383
#        216836
#
# Disc length: 3050 seconds
#
# Revision: 0
# Processed by: cddbd v1.5.2PL0 Copyright (c) Steve Scherf et al.
# Submitted via: ExactAudioCopyFreeDBPlugin 1.0
#
DISCID=de0be812
DTITLE=Snooky Pryor - Real Fine Boogie: The J.O.B. Records Masters Col
DTITLE=lection
DYEAR=2013
DGENRE=Blues
TTITLE0=Snooky And Moody's Boogie
TTITLE1=Telephone Blues
TTITLE2=Boogy Fool
TTITLE3=Raising Sand
TTITLE4=Fine Boogie
TTITLE5=I'm Getting Tired
TTITLE6=Going Back On The Road
TTITLE7=Hold Me In Your Arms
TTITLE8=(Real) Fine Boogie
TTITLE9=Cryin' Shame
TTITLE10=Eighty Nine Ten
TTITLE11=Stop The Train Conductor
TTITLE12=Walking Boogie
TTITLE13=Uncle Sam Don't Take My Man
TTITLE14=Boogie Twist
TTITLE15=I Can't Feel Good No More
TTITLE16=Big Guns (Uncle Sam Don't Take My Man) (undubbed version)
TTITLE17=Can't We Get This Straight
EXTD=
EXTT0=
EXTT1=
EXTT2=
EXTT3=
EXTT4=
EXTT5=
EXTT6=
EXTT7=
EXTT8=
EXTT9=
EXTT10=
EXTT11=
EXTT12=
EXTT13=
EXTT14=
EXTT15=
EXTT16=
EXTT17=
PLAYORDER=
